<svg width="34" height="33" viewBox="0 0 34 33" fill="none" xmlns="http://www.w3.org/2000/svg">
<path d="M24.6003 3.07222C24.3375 1.81896 23.1963 0.872559 21.8314 0.872559C21.5194 0.872559 21.2662 1.11837 21.2662 1.42247C21.2662 1.72658 21.5194 1.97239 21.8314 1.97239C22.7662 1.97239 23.527 2.71258 23.527 3.62214C23.527 4.5317 22.7662 5.27189 21.8314 5.27189C21.5194 5.27189 21.2662 5.5177 21.2662 5.8218C21.2662 6.12591 21.5194 6.37172 21.8314 6.37172C23.1958 6.37172 24.3375 5.42531 24.6003 4.17205H32.0048V9.1213H1.48451V4.17205H9.39719H11.0928C11.4047 4.17205 11.658 3.92624 11.658 3.62214C11.658 3.31804 11.4047 3.07222 11.0928 3.07222H10.0664C10.3004 2.43322 10.9221 1.97239 11.658 1.97239C12.5928 1.97239 13.3535 2.71258 13.3535 3.62214C13.3535 4.5317 12.5928 5.27189 11.658 5.27189C11.346 5.27189 11.0928 5.5177 11.0928 5.8218C11.0928 6.12591 11.346 6.37172 11.658 6.37172C13.2162 6.37172 14.4839 5.13826 14.4839 3.62214C14.4839 2.10602 13.2162 0.872559 11.658 0.872559C10.2936 0.872559 9.1519 1.81896 8.88908 3.07222H0.354126V10.2211V32.2178H33.1352V10.2211V3.07222H24.6003ZM32.0048 31.1179H1.48451V10.2211H32.0048V31.1179Z" fill="white"/>
<path d="M15.0491 1.97239C15.9839 1.97239 16.7447 2.71258 16.7447 3.62214C16.7447 4.5317 15.9839 5.27189 15.0491 5.27189C14.7371 5.27189 14.4839 5.5177 14.4839 5.8218C14.4839 6.12591 14.7371 6.37172 15.0491 6.37172C16.6073 6.37172 17.875 5.13826 17.875 3.62214C17.875 2.10602 16.6073 0.872559 15.0491 0.872559C14.7371 0.872559 14.4839 1.11837 14.4839 1.42247C14.4839 1.72658 14.7371 1.97239 15.0491 1.97239Z" fill="white"/>
<path d="M18.4403 1.97239C19.3751 1.97239 20.1358 2.71258 20.1358 3.62214C20.1358 4.5317 19.3751 5.27189 18.4403 5.27189C18.1283 5.27189 17.8751 5.5177 17.8751 5.8218C17.8751 6.12591 18.1283 6.37172 18.4403 6.37172C19.9985 6.37172 21.2662 5.13826 21.2662 3.62214C21.2662 2.10602 19.9985 0.872559 18.4403 0.872559C18.1283 0.872559 17.8751 1.11837 17.8751 1.42247C17.8751 1.72658 18.1283 1.97239 18.4403 1.97239Z" fill="white"/>
<path d="M5.44086 14.6201H17.8751C18.1871 14.6201 18.4403 14.3743 18.4403 14.0702C18.4403 13.7661 18.1871 13.5203 17.8751 13.5203H5.44086C5.12888 13.5203 4.87567 13.7661 4.87567 14.0702C4.87567 14.3743 5.12888 14.6201 5.44086 14.6201Z" fill="white"/>
<path d="M28.0485 22.3191H19.5706C19.2586 22.3191 19.0054 22.5649 19.0054 22.869C19.0054 23.1731 19.2586 23.4189 19.5706 23.4189H28.0485C28.3605 23.4189 28.6137 23.1731 28.6137 22.869C28.6137 22.5649 28.3605 22.3191 28.0485 22.3191Z" fill="white"/>
<path d="M5.44086 19.0202H11.0928C11.4048 19.0202 11.658 18.7744 11.658 18.4703C11.658 18.1662 11.4048 17.9204 11.0928 17.9204H5.44086C5.12888 17.9204 4.87567 18.1662 4.87567 18.4703C4.87567 18.7744 5.12888 19.0202 5.44086 19.0202Z" fill="white"/>
<path d="M28.0485 26.719H22.3966C22.0846 26.719 21.8314 26.9648 21.8314 27.2689C21.8314 27.573 22.0846 27.8188 22.3966 27.8188H28.0485C28.3605 27.8188 28.6137 27.573 28.6137 27.2689C28.6137 26.9648 28.3605 26.719 28.0485 26.719Z" fill="white"/>
<path d="M16.1795 18.4703C16.1795 18.7744 16.4327 19.0202 16.7447 19.0202H25.2226C25.5346 19.0202 25.7878 18.7744 25.7878 18.4703C25.7878 18.1662 25.5346 17.9204 25.2226 17.9204H16.7447C16.4327 17.9204 16.1795 18.1662 16.1795 18.4703Z" fill="white"/>
<path d="M14.32 18.8605C14.4217 18.756 14.4839 18.613 14.4839 18.47C14.4839 18.3265 14.4217 18.1835 14.32 18.0796C14.1109 17.8761 13.7265 17.8761 13.5174 18.0796C13.4157 18.1835 13.3535 18.3265 13.3535 18.47C13.3535 18.613 13.4157 18.756 13.5174 18.8605C13.6248 18.9644 13.7718 19.02 13.9187 19.02C14.0657 19.02 14.2126 18.9644 14.32 18.8605Z" fill="white"/>
<path d="M7.7016 22.869C7.7016 23.1731 7.9548 23.4189 8.26679 23.4189H16.7447C17.0567 23.4189 17.3099 23.1731 17.3099 22.869C17.3099 22.5649 17.0567 22.3191 16.7447 22.3191H8.26679C7.9548 22.3191 7.7016 22.5649 7.7016 22.869Z" fill="white"/>
<path d="M5.44086 23.4189C5.58781 23.4189 5.73476 23.3585 5.84215 23.2595C5.94388 23.155 6.00605 23.012 6.00605 22.869C6.00605 22.7255 5.94388 22.5825 5.84215 22.4841C5.63303 22.2751 5.2487 22.2751 5.03958 22.4786C4.93784 22.5825 4.87567 22.7255 4.87567 22.869C4.87567 23.012 4.93784 23.155 5.03958 23.2595C5.14696 23.3585 5.28826 23.4189 5.44086 23.4189Z" fill="white"/>
<path d="M28.0485 19.02C28.1955 19.02 28.3424 18.9644 28.4498 18.8605C28.5572 18.756 28.6137 18.613 28.6137 18.47C28.6137 18.3265 28.5572 18.1835 28.4498 18.0796C28.235 17.8761 27.8564 17.8761 27.6472 18.0796C27.5455 18.1835 27.4833 18.3265 27.4833 18.47C27.4833 18.613 27.5455 18.756 27.6472 18.8605C27.7546 18.9644 27.9016 19.02 28.0485 19.02Z" fill="white"/>
<path d="M19.5707 26.719H5.44086C5.12888 26.719 4.87567 26.9648 4.87567 27.2689C4.87567 27.573 5.12888 27.8188 5.44086 27.8188H19.5707C19.8826 27.8188 20.1358 27.573 20.1358 27.2689C20.1358 26.9648 19.8826 26.719 19.5707 26.719Z" fill="white"/>
</svg>
